<?xml version="1.0" encoding="utf-8"?>
<!-- Generator: Adobe Illustrator 19.2.1, SVG Export Plug-In . SVG Version: 6.00 Build 0)  -->
<svg version="1.1" id="Layer_1" xmlns="http://www.w3.org/2000/svg" xmlns:xlink="http://www.w3.org/1999/xlink" x="0px" y="0px"
	 viewBox="0 0 140 220" style="enable-background:new 0 0 140 220;" xml:space="preserve">
<style type="text/css">
	.st0{fill:none;stroke:#818181;stroke-linecap:round;stroke-linejoin:round;stroke-miterlimit:10;}
	.st1{fill:none;stroke:#818181;stroke-linecap:round;stroke-linejoin:round;stroke-miterlimit:10;stroke-dasharray:3,3;}
	.st2{fill:none;stroke:#818181;stroke-linecap:round;stroke-linejoin:round;stroke-dasharray:3,3;}
	.st3{fill:#818181;}
</style>
<path class="st0" d="M69.5,31c-1-1.1-2.3-1.8-3.5-2.1c-0.2-1.4-0.9-2.9-2.1-4.1c-1-1.1-2.3-1.8-3.5-2.1c-0.2-1.4-0.9-2.9-2.1-4.1
	c-1-1.1-2.3-1.8-3.5-2.1c-0.2-1.4-0.9-2.9-2.1-4.1c-2.4-2.5-6-3.1-7.9-1.3c-1.9,1.8-1.5,5.4,1,7.9c1,1.1,2.3,1.8,3.5,2.1
	c0.2,1.4,0.9,2.9,2.1,4.1c1,1.1,2.3,1.8,3.5,2.1c0.2,1.4,0.9,2.9,2.1,4.1c1,1.1,2.3,1.8,3.5,2.1c0.2,1.4,0.9,2.9,2.1,4.1
	c2.4,2.5,6,3.1,7.9,1.3c0.4-0.4,0.8-0.9,0.9-1.5C72.1,35.5,71.4,32.9,69.5,31z"/>
<polyline class="st0" points="68.2,40.6 80.9,55.5 80.8,57.2 86.4,52.2 85,51.8 71.4,37.4 "/>
<path class="st0" d="M80.8,57.2l15.8,18.6"/>
<circle class="st0" cx="98.4" cy="71.5" r="1.1"/>
<path class="st0" d="M95.3,82.7c0-0.5,0.1-1.4,0.3-1.8l1.1-1.9v-3.7l-0.8-0.9c-0.4-0.4-0.6-1-0.6-1.5v-1.3c0-1.6,1.4-3,3-2.9
	c1.6,0,2.8,1.4,2.8,3v10.7"/>
<circle class="st0" cx="98.2" cy="84.5" r="3.4"/>
<circle class="st0" cx="98.2" cy="84.5" r="0.8"/>
<polyline class="st0" points="94.2,93.8 94.2,88.5 102,88.5 102,93.8 "/>
<path class="st0" d="M113.2,143.4v-42.8h1v-4.7c0-1.2-0.9-2.1-2.1-2.1l-19.9,0c-0.6,0-1.1,0.5-1.1,1.1v2.6h-1.6V78.1h1.6v-8.5"/>
<path class="st0" d="M112.9,143.7c0.7,0,1.3,0.6,1.3,1.3v7.8c0,1.1,0.9,2.1,2.1,2.1h1.6v43h2.8v13H46.1v-12.3c0-0.6,0.5-1.2,1.2-1.2
	h0.9c0.6,0,1.2,0.5,1.2,1.2l0,0c0,0.9,0.7,1.6,1.6,1.6h0c0.9,0,1.6-0.7,1.6-1.6v-1.2H110v-24.1H98.4v-5.1H96l-4.9,4.4v3h-7.6v-3
	l-4.6-4.4h-6.6"/>
<polyline class="st0" points="72.3,163.8 77.8,163.8 117.9,163.8 "/>
<path class="st0" d="M85,62.5v15.7h1.4v20.2h-2.8v-4.6h-3.9c-0.6,0-1.2,0.5-1.2,1.2v4.6l-0.2,54.4h-1c-1.3,0-2.4,1.1-2.4,2.4v3
	c0,1.3,1.1,2.4,2.4,2.4h0.6v2.1"/>
<path class="st0" d="M67.5,162.1c-1.6,0-3,0.5-4,1.2c-1-0.8-2.4-1.2-4-1.2s-3,0.5-4,1.2c-1-0.8-2.4-1.2-4-1.2
	c-1.7,0-3.2,0.6-4.2,1.4c-1.1-1.2-3.1-2-5.2-2c-3.5,0-6.3,2-6.3,4.5s2.8,4.5,6.3,4.5c2.2,0,4.1-0.8,5.2-2c1,0.9,2.5,1.4,4.2,1.4
	c1.6,0,3-0.5,4-1.2c1,0.8,2.4,1.2,4,1.2s3-0.5,4-1.2c1,0.8,2.4,1.2,4,1.2c3,0,5.5-1.8,5.5-4C73,163.8,70.6,162.1,67.5,162.1z"/>
<g>
	<path class="st0" d="M96.6,168.4v8.1c0,3.6-2.9,6.5-6.5,6.5h-6.3c-0.6,0-1.1,0.5-1.1,1.1v3.3h-1.9v-3.3c0-1.6,1.3-2.9,2.9-2.9h6.3
		c2.6,0,4.6-2.1,4.6-4.6v-7.1"/>
</g>
<line class="st1" x1="80" y1="152.5" x2="113" y2="152.5"/>
<line class="st1" x1="80" y1="161.5" x2="113" y2="161.5"/>
<line class="st1" x1="80" y1="143.5" x2="111" y2="143.5"/>
<path class="st0" d="M98.4,168.2"/>
<line class="st1" x1="80" y1="108.5" x2="113" y2="108.5"/>
<line class="st1" x1="80" y1="111.5" x2="113" y2="111.5"/>
<line class="st1" x1="80" y1="126.5" x2="113" y2="126.5"/>
<line class="st1" x1="80" y1="130.5" x2="113" y2="130.5"/>
<polyline class="st1" points="58.2,197.3 59.6,194.5 109,194.5 "/>
<line class="st1" x1="16" y1="71.5" x2="78" y2="71.5"/>
<g>
	<g>
		<path class="st2" d="M29.8,62c0.1-11.9,5.2-22.9,13.6-30.7"/>
		<g>
			<path class="st3" d="M29.9,65.6c0.6-1.7,1.6-3.9,2.7-5.2l-2.8,1.1l-2.9-1C28.1,61.8,29.3,63.9,29.9,65.6z"/>
		</g>
		<g>
			<path class="st3" d="M46.2,28.9c-0.9,1.6-1.8,3.8-2,5.5l-1.1-2.8l-2.6-1.5C42.2,30.1,44.5,29.6,46.2,28.9z"/>
		</g>
	</g>
</g>
<path class="st0" d="M86.4,52.2L101.1,69c1.1,1.3,1.2,3.1,0.3,4.4"/>
<line class="st0" x1="100.5" y1="87" x2="100.5" y2="88"/>
<line class="st0" x1="95.5" y1="87" x2="95.5" y2="88"/>
<line class="st1" x1="112" y1="100.5" x2="79" y2="100.5"/>
</svg>
