<?xml version="1.0" encoding="UTF-8"?>
<svg width="50px" height="46px" viewBox="0 0 50 46" version="1.1" xmlns="http://www.w3.org/2000/svg" xmlns:xlink="http://www.w3.org/1999/xlink">
    <!-- Generator: Sketch 41.2 (35397) - http://www.bohemiancoding.com/sketch -->
    <title>Page 1</title>
    <desc>Created with Sketch.</desc>
    <defs>
        <polygon id="path-1" points="5.13041473e-05 45.6075752 49.7004098 45.6075752 49.7004098 8.14159293e-05 5.13041473e-05 8.14159293e-05 5.13041473e-05 45.6075752"></polygon>
    </defs>
    <g id="Page-1" stroke="none" stroke-width="1" fill="none" fill-rule="evenodd">
        <g>
            <mask id="mask-2" fill="white">
                <use xlink:href="#path-1"></use>
            </mask>
            <g id="Clip-2"></g>
            <path d="M36.805041,14.4306478 L25.2222541,21.3135504 C24.9976639,21.4474796 24.7034016,21.4474796 24.4788115,21.3135504 L12.8968443,14.4302407 C12.7919262,14.3683646 12.7845492,14.2678159 12.7865984,14.227515 C12.7882377,14.1864 12.8042213,14.0850372 12.9169262,14.0304885 C14.4837295,13.2668071 16.880041,11.9401345 19.3972541,9.95562124 C21.8993033,7.98372743 23.6464344,5.9283823 24.6722541,4.55123186 C24.7152869,4.49342655 24.7804508,4.46004602 24.8505328,4.46004602 C24.9214344,4.46004602 24.9861885,4.49342655 25.0296311,4.55123186 C26.0542213,5.92716106 27.8009426,7.98209912 30.305041,9.95562124 C32.8243033,11.9417628 35.2193852,13.2680283 36.7857787,14.0304885 C36.8980738,14.0850372 36.9140574,14.1864 36.9156967,14.227515 C36.9177459,14.2678159 36.909959,14.3683646 36.805041,14.4306478 M14.9681557,18.7273735 C15.0087295,18.7273735 15.0484836,18.7383646 15.0825,18.7587186 L24.4788115,24.3430372 C24.7042213,24.4765593 24.9980738,24.4765593 25.2222541,24.3430372 L34.6206148,18.7579044 C34.6935656,18.714754 34.7927459,18.7176035 34.8656967,18.766046 C36.7165164,19.9909487 38.6247131,21.0648248 40.5370082,21.9579575 C40.6505328,22.0108779 40.6677459,22.1114265 40.6697951,22.1521345 C40.6718443,22.1928425 40.664877,22.2946124 40.5579098,22.3581168 L25.1743033,31.5003115 C24.9788115,31.6167363 24.7222541,31.6167363 24.5271721,31.5003115 L9.14315574,22.3581168 C9.03659836,22.2950195 9.02963115,22.1932496 9.03168033,22.1525416 C9.03372951,22.1114265 9.05053279,22.0104708 9.16405738,21.9575504 C11.0804508,21.0636035 12.9894672,19.9901345 14.8378279,18.7668602 C14.8767623,18.7412142 14.9218443,18.7273735 14.9681557,18.7273735 M12.1042213,27.184046 C12.1447951,27.184046 12.1845492,27.1950372 12.2181557,27.2149841 L24.4788115,34.5013027 C24.7034016,34.6344177 24.9980738,34.6344177 25.2222541,34.5013027 L37.4837295,27.2141699 C37.5554508,27.1714265 37.6542213,27.1746832 37.725123,27.2202761 C40.3976639,28.9255327 42.7411066,30.0885593 44.2361885,30.7639044 C44.3480738,30.8143823 44.3656967,30.9145239 44.3681557,30.9552319 C44.3726639,31.0415327 44.3312705,31.119692 44.2562705,31.1640637 L24.9677459,42.6274265 C24.8972541,42.6693558 24.8046311,42.6697628 24.7333197,42.6274265 L5.44520492,31.1640637 C5.37020492,31.1200991 5.32881148,31.0419398 5.33372951,30.9552319 C5.33577869,30.9145239 5.3529918,30.8143823 5.46487705,30.7639044 C6.95995902,30.0889664 9.30340164,28.9263469 11.9767623,27.2214973 C12.014877,27.1970726 12.0587295,27.184046 12.1042213,27.184046 M0.352581967,31.1669133 L24.4788115,45.5058867 C24.5911066,45.5722407 24.7197951,45.6076566 24.8505328,45.6076566 C24.9816803,45.6076566 25.1103689,45.5722407 25.2222541,45.5058867 L49.3480738,31.1669133 C49.5943852,31.0203646 49.727582,30.7533204 49.6960246,30.4699929 C49.6640574,30.1866655 49.4743033,29.9554442 49.2017623,29.8667009 L47.9829098,29.4697982 C47.8480738,29.4246124 44.630041,28.3324177 40.4452049,25.839869 C40.3476639,25.7816566 40.3370082,25.6864 40.3370082,25.6481345 C40.3370082,25.6090549 40.3480738,25.5117628 40.4484836,25.4519221 L45.6247131,22.3760283 C45.8710246,22.2294796 46.0046311,21.9624354 45.9726639,21.679108 C45.9406967,21.3953735 45.7513525,21.1641522 45.4779918,21.0750018 L44.2591393,20.6785062 C43.955041,20.575515 41.1779918,19.6087009 37.5665164,17.3990726 C37.4652869,17.3371965 37.4546311,17.2394973 37.455041,17.2004177 C37.455041,17.1621522 37.4669262,17.0668956 37.5652869,17.0082761 L41.8427459,14.4668779 C42.0894672,14.3199221 42.2226639,14.0524708 42.1906967,13.7687363 C42.1583197,13.4854088 41.9681557,13.2541876 41.6952049,13.1658513 L40.4738934,12.7701699 C40.4337295,12.7571434 36.3759426,11.4219221 31.9316803,7.91940885 C27.9337295,4.76779823 26.0189754,1.34059469 25.9997131,1.30558584 L25.484959,0.373373451 C25.3558607,0.139709735 25.1185656,8.14159293e-05 24.850123,8.14159293e-05 C24.5812705,8.14159293e-05 24.3439754,0.140116814 24.214877,0.374187611 L23.7017623,1.30558584 C23.6825,1.33978053 21.7538115,4.77878938 17.7689754,7.91940885 C13.3456148,11.4064531 9.2677459,12.7571434 9.22594262,12.770577 L8.00913934,13.1674796 C7.73618852,13.2566301 7.5472541,13.4882584 7.51569672,13.7715858 C7.48372951,14.0553204 7.61692623,14.3219575 7.8632377,14.4680991 L12.1378279,17.0086832 C12.2365984,17.0673027 12.2480738,17.1625593 12.2480738,17.2008248 C12.2484836,17.2399044 12.2382377,17.3376035 12.1370082,17.3994796 C8.39807377,19.6876743 5.55831967,20.6394265 5.44069672,20.6789133 L4.22184426,21.0758159 C3.94889344,21.1649664 3.75995902,21.3961876 3.72840164,21.6799221 C3.69643443,21.9632496 3.83004098,22.2298867 4.07594262,22.3764354 L9.25217213,25.4523292 C9.3529918,25.5121699 9.36405738,25.6094619 9.36405738,25.6485416 C9.36405738,25.6868071 9.35340164,25.7820637 9.25545082,25.8406832 C5.15709016,28.2819398 2.05913934,29.3550018 1.7177459,29.4697982 L0.498893443,29.8667009 C0.225532787,29.9554442 0.0365983607,30.1866655 0.00463114754,30.4704 C-0.0269262295,30.7537274 0.106270492,31.0207717 0.352581967,31.1669133" id="Fill-1" fill="#C3A347" mask="url(#mask-2)"></path>
        </g>
    </g>
</svg>