<?xml version="1.0" encoding="UTF-8"?>
<svg width="1000px" height="800px" viewBox="0 0 1000 800" version="1.1" xmlns="http://www.w3.org/2000/svg" xmlns:xlink="http://www.w3.org/1999/xlink">
    <!-- Generator: Sketch 41 (35326) - http://www.bohemiancoding.com/sketch -->
    <title>Artboard</title>
    <desc>Created with Sketch.</desc>
    <defs></defs>
    <g id="Page-1" stroke="none" stroke-width="1" fill="none" fill-rule="evenodd">
        <g id="Artboard">
            <g id="pagoda-landing" transform="translate(125.000000, 109.000000)">
                <g id="Layer_1">
                    <g id="Group">
                        <g transform="translate(0.000000, 281.250000)" id="Shape" fill="#010101">
                            <path d="M226.973684,150.986842 L196.381579,6.41447368 C195.888158,4.44078947 194.407895,3.45394737 192.434211,3.45394737 L148.026316,3.45394737 C146.052632,3.45394737 144.572368,4.44078947 144.572368,6.41447368 L110.032895,150.986842 C109.539474,153.453947 111.019737,155.427632 113.486842,155.427632 L148.026316,155.427632 C150,155.427632 151.480263,153.947368 151.973684,152.467105 L154.440789,139.638158 C154.934211,137.664474 156.414474,136.677632 158.388158,136.677632 L179.605263,136.677632 C181.578947,136.677632 183.059211,138.157895 183.552632,139.638158 L185.526316,152.467105 C186.019737,154.440789 187.5,155.427632 189.473684,155.427632 L224.013158,155.427632 C225.493421,155.427632 227.467105,153.453947 226.973684,150.986842 Z M173.190789,104.111842 L164.802632,104.111842 C162.335526,104.111842 160.855263,102.138158 160.855263,99.6710526 L164.309211,80.4276316 L167.269737,62.1710526 C167.269737,61.6776316 167.269737,60.6907895 167.763158,59.2105263 C167.763158,58.2236842 168.256579,56.7434211 168.256579,54.7697368 C168.256579,53.7828947 168.75,52.7960526 168.75,51.3157895 C168.75,49.8355263 170.723684,49.8355263 170.723684,51.3157895 C170.723684,51.8092105 171.217105,55.2631579 171.217105,55.2631579 C171.710526,58.2236842 171.710526,60.6907895 172.203947,62.6644737 C172.203947,64.6381579 172.697368,66.1184211 172.697368,67.1052632 C174.177632,76.9736842 174.671053,82.8947368 174.671053,84.375 C174.671053,85.8552632 175.164474,86.8421053 175.164474,86.8421053 L177.138158,100.164474 C177.138158,102.138158 175.164474,104.111842 173.190789,104.111842 Z"></path>
                            <path d="M348.355263,67.5986842 L298.519737,67.5986842 C296.546053,67.5986842 294.572368,69.0789474 294.572368,71.5460526 L294.572368,96.2171053 C294.572368,98.1907895 296.052632,100.164474 298.519737,100.164474 L305.921053,100.164474 C308.388158,100.164474 309.868421,102.138158 309.868421,104.111842 C309.868421,105.592105 309.375,106.578947 308.881579,108.059211 C308.388158,110.526316 307.401316,112.5 305.921053,113.980263 C304.934211,115.460526 303.453947,116.940789 301.480263,117.927632 C299.506579,118.914474 297.532895,119.407895 295.559211,119.407895 C290.131579,119.407895 286.184211,116.447368 283.717105,111.019737 C281.25,105.592105 279.769737,96.2171053 279.769737,83.8815789 C279.769737,54.7697368 285.197368,39.9671053 296.546053,39.9671053 C300,39.9671053 302.467105,41.4473684 304.440789,44.4078947 C305.921053,46.3815789 306.907895,48.8486842 307.894737,51.8092105 C308.388158,53.7828947 310.855263,55.2631579 312.828947,54.2763158 L344.407895,42.4342105 C346.381579,41.4473684 347.368421,38.9802632 346.381579,37.0065789 C335.526316,14.8026316 318.75,3.45394737 295.559211,3.45394737 C277.302632,3.45394737 262.993421,10.3618421 252.631579,24.1776316 C242.269737,37.9934211 236.842105,56.7434211 236.842105,80.4276316 C236.842105,104.111842 242.269737,122.368421 252.631579,135.690789 C262.993421,149.013158 277.302632,155.921053 296.052632,155.921053 C314.802632,155.921053 328.618421,149.013158 338.486842,135.197368 C347.368421,122.861842 351.809211,102.138158 351.809211,73.5197368 L351.809211,71.0526316 C351.809211,69.5723684 350.328947,67.5986842 348.355263,67.5986842 Z"></path>
                            <path d="M472.697368,24.1776316 C462.335526,10.3618421 448.519737,3.45394737 430.756579,3.45394737 C416.447368,3.45394737 404.111842,8.38815789 393.75,18.75 C379.440789,32.5657895 372.532895,52.3026316 372.532895,78.4539474 C372.532895,105.592105 379.440789,125.822368 392.763158,139.638158 C403.618421,150.493421 416.447368,155.921053 431.25,155.921053 C448.026316,155.921053 461.842105,149.013158 472.203947,135.197368 C482.565789,121.381579 487.993421,103.125 487.993421,80.4276316 C487.993421,56.7434211 483.059211,37.9934211 472.697368,24.1776316 Z M441.118421,108.552632 C438.651316,115.460526 434.703947,118.914474 429.769737,118.914474 C424.835526,118.914474 421.381579,115.460526 418.914474,108.552632 C416.447368,101.644737 414.967105,91.7763158 414.967105,79.4407895 C414.967105,66.6118421 416.447368,57.2368421 419.407895,50.3289474 C422.368421,43.4210526 426.315789,39.4736842 431.25,39.4736842 C441.118421,39.4736842 446.052632,52.7960526 446.052632,79.9342105 C445.559211,92.2697368 444.078947,102.138158 441.118421,108.552632 Z"></path>
                            <path d="M547.203947,3.45394737 L515.625,3.45394737 C513.651316,3.45394737 511.677632,4.93421053 511.677632,7.40131579 L511.677632,151.973684 C511.677632,153.947368 513.157895,155.921053 515.625,155.921053 L550.164474,155.921053 C571.381579,155.921053 587.171053,150 598.026316,138.157895 C610.361842,124.342105 616.776316,105.098684 616.776316,79.4407895 C616.776316,53.7828947 609.375,34.0460526 594.572368,19.7368421 C583.223684,8.88157895 567.434211,3.45394737 547.203947,3.45394737 Z M557.565789,118.421053 C555.098684,118.914474 552.631579,116.940789 552.631579,114.473684 L552.631579,42.9276316 C552.631579,41.4473684 553.618421,41.4473684 554.605263,41.4473684 C560.526316,41.4473684 565.460526,45.3947368 569.407895,52.3026316 C573.355263,59.2105263 574.835526,69.0789474 574.835526,80.9210526 C574.835526,102.631579 569.407895,115.460526 557.565789,118.421053 Z"></path>
                            <path d="M713.486842,6.41447368 C712.993421,4.44078947 711.513158,3.45394737 709.539474,3.45394737 L665.131579,3.45394737 C663.157895,3.45394737 661.677632,4.44078947 661.677632,6.41447368 L627.138158,150.986842 C626.644737,153.453947 628.125,155.427632 630.592105,155.427632 L665.131579,155.427632 C667.105263,155.427632 668.585526,153.947368 669.078947,152.467105 L671.546053,139.638158 C672.039474,137.664474 673.519737,136.677632 675.493421,136.677632 L697.203947,136.677632 C699.177632,136.677632 700.657895,137.664474 700.657895,139.638158 L709.539474,175.657895 C710.032895,178.125 713.486842,179.605263 715.460526,177.631579 C721.381579,173.190789 728.289474,168.256579 736.184211,163.322368 C738.651316,161.842105 741.118421,160.361842 743.585526,159.375 C745.065789,158.388158 746.052632,156.907895 745.559211,155.427632 L713.486842,6.41447368 Z M690.296053,104.111842 L681.907895,104.111842 C679.440789,104.111842 677.960526,102.138158 677.960526,99.6710526 L681.414474,80.4276316 L684.375,62.1710526 C684.375,61.6776316 684.375,60.6907895 684.868421,59.2105263 C684.868421,58.2236842 685.361842,56.7434211 685.361842,54.7697368 C685.855263,51.8092105 686.348684,50.8223684 686.842105,50.8223684 C687.828947,50.8223684 687.828947,53.7828947 688.322368,55.2631579 C688.322368,56.25 688.815789,60.6907895 689.309211,62.6644737 C689.309211,64.6381579 689.802632,66.1184211 689.802632,67.1052632 C691.282895,76.9736842 691.776316,82.8947368 691.776316,84.375 C691.776316,85.8552632 692.269737,86.8421053 692.269737,86.8421053 L694.243421,100.164474 C694.243421,102.138158 692.269737,104.111842 690.296053,104.111842 Z"></path>
                            <path d="M88.8157895,15.2960526 C79.4407895,7.40131579 64.6381579,2.96052632 44.4078947,2.96052632 L10.3618421,2.96052632 C7.40131579,2.96052632 4.44078947,5.42763158 4.44078947,8.88157895 L4.44078947,150.493421 C4.44078947,152.467105 5.92105263,154.934211 7.89473684,155.427632 C11.8421053,157.401316 16.2828947,159.375 20.7236842,162.335526 C27.6315789,166.282895 33.5526316,170.723684 38.4868421,174.671053 C41.4473684,177.138158 45.3947368,174.671053 45.3947368,171.217105 L45.3947368,111.019737 C45.3947368,108.059211 47.8618421,105.098684 51.3157895,105.098684 L51.8092105,105.098684 C67.1052632,105.098684 78.9473684,102.138158 87.3355263,95.7236842 C99.1776316,86.8421053 105.592105,73.0263158 105.592105,54.2763158 C106.085526,37.9934211 100.164474,25.1644737 88.8157895,15.2960526 Z M59.7039474,69.0789474 C56.7434211,72.0394737 52.7960526,73.5197368 47.8618421,73.5197368 C47.8618421,73.5197368 45.8881579,73.0263158 45.8881579,71.5460526 L45.8881579,40.9539474 C45.8881579,39.9671053 46.3815789,38.9802632 47.8618421,38.9802632 C53.2894737,38.9802632 56.7434211,40.4605263 59.7039474,43.9144737 C62.6644737,47.3684211 64.1447368,51.3157895 64.1447368,56.7434211 C64.1447368,61.6776316 62.6644737,66.1184211 59.7039474,69.0789474 Z"></path>
                        </g>
                        <path d="M261.019737,150 L373.026316,217.105263 C373.519737,217.598684 374.013158,217.598684 374.506579,217.598684 C375,217.598684 375.493421,217.598684 375.986842,217.105263 L488.486842,150 C489.473684,149.506579 490.460526,148.026316 489.967105,146.546053 C489.967105,145.065789 488.980263,144.078947 487.5,143.585526 L482.072368,141.611842 C481.578947,141.611842 466.776316,136.184211 447.039474,124.835526 C446.546053,124.342105 446.546053,124.342105 446.546053,123.848684 C446.546053,123.848684 446.546053,123.355263 447.039474,122.861842 L471.217105,108.552632 C472.203947,108.059211 473.190789,106.578947 472.697368,105.098684 C472.697368,103.618421 471.710526,102.631579 470.230263,102.138158 L464.802632,100.164474 C463.322368,99.6710526 450.493421,95.2302632 433.717105,84.8684211 C433.223684,84.375 433.223684,83.8815789 433.223684,83.8815789 C433.223684,83.8815789 433.223684,83.3881579 433.717105,82.8947368 L453.453947,71.0526316 C454.440789,70.5592105 455.427632,69.0789474 454.934211,67.5986842 C454.934211,66.1184211 453.947368,65.1315789 452.467105,64.6381579 L447.039474,62.6644737 C447.039474,62.6644737 428.289474,56.25 407.565789,39.9671053 C388.815789,25.1644737 379.934211,9.375 379.934211,8.88157895 L377.467105,4.44078947 C376.973684,3.45394737 375.986842,2.46710526 374.506579,2.46710526 C373.026316,2.46710526 372.039474,2.96052632 371.546053,4.44078947 L369.078947,8.88157895 C369.078947,8.88157895 360.197368,25.1644737 341.447368,39.9671053 C320.723684,56.25 301.973684,62.6644737 301.973684,62.6644737 L296.546053,64.6381579 C295.065789,65.1315789 294.572368,66.1184211 294.078947,67.5986842 C294.078947,69.0789474 294.572368,70.0657895 295.559211,71.0526316 L315.296053,82.8947368 C315.789474,83.3881579 315.789474,83.3881579 315.789474,83.8815789 C315.789474,83.8815789 315.789474,84.375 315.296053,84.8684211 C298.026316,95.7236842 284.703947,100.164474 284.210526,100.164474 L278.782895,102.138158 C277.302632,102.631579 276.809211,103.618421 276.315789,105.098684 C275.822368,106.578947 276.809211,107.565789 277.796053,108.552632 L301.973684,122.861842 C302.467105,123.355263 302.467105,123.355263 302.467105,123.848684 C302.467105,123.848684 302.467105,124.342105 301.973684,124.835526 C283.223684,136.184211 268.421053,141.118421 266.940789,141.611842 L261.513158,143.585526 C260.032895,144.078947 259.539474,145.065789 259.046053,146.546053 C259.539474,148.519737 260.032895,149.506579 261.019737,150 Z M315.789474,131.743421 L316.282895,131.743421 L373.026316,165.789474 C374.013158,166.282895 375.493421,166.282895 376.480263,165.789474 L433.223684,131.743421 L434.210526,131.743421 C446.546053,139.638158 457.401316,145.065789 464.309211,148.519737 C464.802632,148.519737 464.802632,149.013158 464.802632,149.506579 C464.802632,150 464.802632,150.493421 464.309211,150.493421 L375,203.782895 L374.013158,203.782895 L284.703947,150 C284.210526,150 284.210526,149.506579 284.210526,149.013158 C284.210526,149.013158 284.210526,148.519737 284.703947,148.026316 C291.611842,145.065789 302.467105,139.638158 314.802632,131.743421 L315.789474,131.743421 Z M329.111842,92.2697368 L329.605263,92.2697368 L373.026316,118.421053 C374.013158,118.914474 375.493421,118.914474 376.480263,118.421053 L419.901316,92.2697368 L420.888158,92.2697368 C429.276316,98.1907895 438.157895,103.125 447.039474,107.072368 C447.532895,107.072368 447.532895,107.565789 447.532895,108.059211 C447.532895,108.552632 447.532895,108.552632 447.039474,109.046053 L375.986842,151.480263 C375,151.973684 374.013158,151.973684 373.026316,151.480263 L301.973684,109.046053 C301.480263,108.552632 301.480263,108.059211 301.480263,108.059211 C301.480263,108.059211 301.480263,107.565789 301.973684,107.072368 C310.855263,103.125 319.736842,97.6973684 328.125,92.2697368 C328.618421,92.2697368 328.618421,92.2697368 329.111842,92.2697368 Z M430.263158,72.0394737 L376.480263,104.111842 C375.493421,104.605263 374.013158,104.605263 373.026316,104.111842 L319.243421,72.0394737 C318.75,71.5460526 318.75,71.0526316 318.75,71.0526316 C318.75,71.0526316 318.75,70.5592105 319.243421,70.0657895 C326.644737,66.6118421 337.5,60.1973684 349.342105,50.8223684 C361.184211,41.4473684 369.078947,32.0723684 374.013158,25.6578947 C374.013158,25.1644737 374.506579,25.1644737 375,25.1644737 C375.493421,25.1644737 375.493421,25.1644737 375.986842,25.6578947 C380.921053,32.0723684 388.815789,41.4473684 400.657895,50.8223684 C412.5,60.1973684 423.355263,66.1184211 430.756579,70.0657895 C431.25,70.5592105 431.25,70.5592105 431.25,71.0526316 C430.756579,71.5460526 430.756579,72.0394737 430.263158,72.0394737 Z" id="Shape" fill="#C3A346"></path>
                        <g transform="translate(59.210526, 542.763158)" id="Shape" fill="#010101">
                            <g transform="translate(69.078947, 0.000000)">
                                <path d="M42.9276316,22.6973684 L49.8355263,7.89473684 C50.3289474,6.41447368 49.8355263,5.42763158 48.3552632,5.42763158 L44.4078947,5.42763158 L44.4078947,0.986842105 L61.6776316,0.986842105 L61.6776316,5.42763158 L59.7039474,5.42763158 C58.2236842,5.42763158 57.2368421,6.41447368 56.7434211,7.89473684 L44.4078947,34.0460526 L38.9802632,34.0460526 L31.5789474,18.2565789 L24.6710526,34.0460526 L18.75,34.0460526 L5.92105263,7.89473684 C5.42763158,6.90789474 4.93421053,5.42763158 2.46710526,5.42763158 L0.493421053,5.42763158 L0.493421053,0.986842105 L18.2565789,0.986842105 L18.2565789,5.42763158 L16.7763158,5.42763158 C14.8026316,5.42763158 14.3092105,6.41447368 14.8026316,7.89473684 L22.2039474,22.6973684 L27.6315789,10.8552632 L26.1513158,7.89473684 C25.6578947,6.90789474 25.1644737,5.42763158 22.6973684,5.42763158 L22.2039474,5.42763158 L22.2039474,0.986842105 L39.9671053,0.986842105 L39.9671053,5.42763158 L37.5,5.42763158 C36.0197368,5.42763158 35.0328947,6.90789474 35.5263158,8.38815789 L42.9276316,22.6973684 Z"></path>
                                <path d="M108.059211,26.1513158 C108.059211,28.125 108.552632,29.1118421 111.019737,29.1118421 L113.486842,29.1118421 L113.486842,33.5526316 L94.2434211,33.5526316 L94.2434211,29.6052632 L96.7105263,29.6052632 C98.1907895,29.6052632 99.1776316,29.1118421 99.1776316,26.6447368 L99.1776316,19.7368421 L82.4013158,19.7368421 L82.4013158,26.6447368 C82.4013158,28.6184211 82.8947368,29.6052632 85.3618421,29.6052632 L87.3355263,29.6052632 L87.3355263,34.0460526 L68.0921053,34.0460526 L68.0921053,29.6052632 L71.0526316,29.6052632 C72.5328947,29.6052632 73.5197368,29.1118421 73.5197368,26.6447368 L73.5197368,8.88157895 C73.5197368,6.90789474 73.0263158,5.92105263 70.5592105,5.92105263 L68.0921053,5.92105263 L68.0921053,1.48026316 L87.3355263,1.48026316 L87.3355263,5.92105263 L84.8684211,5.92105263 C83.3881579,5.92105263 82.4013158,6.41447368 82.4013158,8.88157895 L82.4013158,14.8026316 L99.1776316,14.8026316 L99.1776316,8.88157895 C99.1776316,6.90789474 98.6842105,5.92105263 96.2171053,5.92105263 L94.2434211,5.92105263 L94.2434211,1.48026316 L113.486842,1.48026316 L113.486842,5.92105263 L110.526316,5.92105263 C109.046053,5.92105263 108.059211,6.41447368 108.059211,8.88157895 L108.059211,26.1513158 Z"></path>
                                <path d="M131.743421,0.986842105 L146.052632,0.986842105 L160.855263,27.1381579 C161.348684,28.125 161.842105,29.6052632 164.309211,29.6052632 L166.282895,29.6052632 L166.282895,34.0460526 L145.065789,34.0460526 L145.065789,29.6052632 L148.519737,29.6052632 C150.493421,29.6052632 150.986842,28.6184211 150.493421,27.1381579 L149.506579,25.1644737 L133.223684,25.1644737 L132.236842,27.1381579 C131.743421,28.6184211 132.236842,29.6052632 134.210526,29.6052632 L137.171053,29.6052632 L137.171053,34.0460526 L120.394737,34.0460526 L120.394737,29.6052632 L122.368421,29.6052632 C123.848684,29.6052632 124.835526,28.6184211 125.822368,27.1381579 L136.184211,8.38815789 C136.677632,6.90789474 136.184211,5.92105263 134.210526,5.92105263 L131.743421,5.92105263 L131.743421,0.986842105 L131.743421,0.986842105 Z M146.546053,19.7368421 L141.118421,10.3618421 L136.184211,19.7368421 L146.546053,19.7368421 Z"></path>
                                <path d="M166.776316,13.8157895 L168.256579,0.493421053 L205.756579,0.493421053 L207.236842,13.8157895 L202.796053,14.3092105 C201.809211,6.41447368 197.861842,5.92105263 194.407895,5.92105263 L191.447368,5.92105263 L191.447368,26.1513158 C191.447368,28.125 191.940789,29.1118421 194.407895,29.1118421 L196.875,29.1118421 L196.875,33.5526316 L177.138158,33.5526316 L177.138158,29.6052632 L180.098684,29.6052632 C181.578947,29.6052632 182.565789,29.1118421 182.565789,26.6447368 L182.565789,6.41447368 L179.605263,6.41447368 C176.151316,6.41447368 172.203947,6.90789474 171.217105,14.8026316 L166.776316,13.8157895 Z"></path>
                                <path d="M223.519737,0.493421053 C226.480263,0.493421053 229.440789,2.96052632 229.440789,7.40131579 C229.440789,13.8157895 225,18.2565789 220.065789,19.7368421 L218.585526,16.7763158 C221.052632,15.7894737 225.986842,13.3223684 225.986842,8.88157895 C225.986842,10.3618421 224.013158,11.3486842 223.026316,11.3486842 C220.559211,11.3486842 218.585526,8.88157895 218.585526,6.41447368 C218.092105,2.96052632 220.559211,0.493421053 223.519737,0.493421053 Z"></path>
                                <path d="M274.342105,11.8421053 L270.394737,12.3355263 C268.421053,7.89473684 262.006579,5.42763158 257.072368,5.42763158 C253.125,5.42763158 249.671053,6.41447368 249.671053,8.88157895 C249.671053,10.8552632 255.098684,11.8421053 259.046053,12.8289474 C266.447368,14.3092105 275.822368,15.7894737 275.822368,24.6710526 C275.822368,31.0855263 269.407895,34.5394737 261.019737,34.5394737 C253.125,34.5394737 248.684211,31.5789474 247.203947,31.5789474 C246.217105,31.5789474 246.710526,32.5657895 246.710526,34.5394737 L242.269737,34.5394737 L240.789474,21.7105263 L244.736842,21.2171053 C246.710526,26.1513158 254.605263,29.1118421 260.032895,29.1118421 C264.967105,29.1118421 267.927632,28.125 267.927632,26.1513158 C267.927632,24.1776316 261.513158,23.1907895 257.565789,22.2039474 C249.671053,20.7236842 241.776316,18.75 241.776316,10.3618421 C241.776316,3.45394737 249.177632,0 256.578947,0 C262.993421,0 267.434211,2.96052632 268.914474,2.96052632 C269.901316,2.96052632 269.901316,1.97368421 269.901316,0.493421053 L274.342105,0.493421053 L274.342105,11.8421053 Z"></path>
                                <path d="M342.434211,0.986842105 L343.914474,13.3223684 L339.473684,13.8157895 C337.5,8.88157895 333.059211,5.42763158 327.631579,5.42763158 C320.723684,5.42763158 315.789474,10.3618421 315.789474,16.7763158 C315.789474,24.1776316 321.710526,28.6184211 328.125,28.6184211 C334.046053,28.6184211 337.5,25.6578947 337.5,24.6710526 L337.5,24.6710526 C337.5,24.1776316 337.5,23.6842105 336.019737,23.6842105 L331.578947,23.6842105 L331.578947,18.75 L349.342105,18.75 L349.342105,23.6842105 L347.368421,23.6842105 C345.888158,23.6842105 344.901316,23.6842105 344.901316,26.1513158 L344.901316,34.0460526 L340.460526,34.0460526 L338.980263,30.0986842 C336.019737,33.5526316 332.072368,34.5394737 325.657895,34.5394737 C315.296053,34.5394737 305.921053,28.125 305.921053,17.2697368 C305.921053,5.92105263 315.789474,0.493421053 325.164474,0.493421053 C332.072368,0.493421053 335.032895,2.96052632 337.5,2.96052632 C338.486842,2.96052632 337.993421,1.97368421 337.993421,0.986842105 L342.434211,0.986842105 Z"></path>
                                <path d="M375.986842,0.493421053 C388.322368,0.493421053 396.217105,7.40131579 396.217105,17.7631579 C396.217105,28.125 388.322368,35.0328947 375.986842,35.0328947 C363.651316,35.0328947 355.756579,28.125 355.756579,17.7631579 C355.756579,6.90789474 363.651316,0.493421053 375.986842,0.493421053 Z M375.986842,29.1118421 C381.907895,29.1118421 386.842105,25.1644737 386.842105,17.2697368 C386.842105,9.375 382.401316,5.42763158 375.986842,5.42763158 C370.065789,5.42763158 365.131579,8.88157895 365.131579,17.2697368 C365.131579,25.6578947 369.572368,29.1118421 375.986842,29.1118421 Z"></path>
                                <path d="M423.848684,0.493421053 C436.184211,0.493421053 444.078947,7.40131579 444.078947,17.7631579 C444.078947,28.125 436.184211,35.0328947 423.848684,35.0328947 C411.513158,35.0328947 403.618421,28.125 403.618421,17.7631579 C403.618421,6.90789474 411.513158,0.493421053 423.848684,0.493421053 Z M423.848684,29.1118421 C429.769737,29.1118421 434.703947,25.1644737 434.703947,17.2697368 C434.703947,9.375 430.263158,5.42763158 423.848684,5.42763158 C417.927632,5.42763158 412.993421,8.88157895 412.993421,17.2697368 C412.993421,25.6578947 417.927632,29.1118421 423.848684,29.1118421 Z"></path>
                                <path d="M471.217105,0.986842105 C483.552632,0.986842105 490.953947,6.90789474 490.953947,17.2697368 C490.953947,27.1381579 483.552632,34.0460526 471.217105,34.0460526 L450.493421,34.0460526 L450.493421,29.6052632 L453.453947,29.6052632 C454.934211,29.6052632 455.921053,29.1118421 455.921053,26.6447368 L455.921053,8.88157895 C455.921053,6.90789474 455.427632,5.92105263 452.960526,5.92105263 L450.493421,5.92105263 L450.493421,1.48026316 L471.217105,1.48026316 L471.217105,0.986842105 Z M468.75,28.6184211 C476.151316,28.6184211 481.578947,25.6578947 481.578947,17.2697368 C481.578947,8.38815789 475.657895,6.41447368 468.75,6.41447368 L464.309211,6.41447368 L464.309211,29.1118421 L468.75,29.1118421 L468.75,28.6184211 Z"></path>
                            </g>
                            <path d="M590.131579,17.2697368 C588.157895,18.2565789 585.690789,20.2302632 583.717105,21.7105263 C582.730263,22.2039474 583.223684,23.6842105 584.210526,23.6842105 L615.789474,23.6842105 C618.256579,23.6842105 620.723684,22.6973684 622.697368,21.2171053 C624.671053,19.7368421 626.644737,18.2565789 628.618421,17.2697368 C629.605263,16.7763158 629.111842,15.2960526 628.125,15.2960526 L596.052632,15.2960526 C594.572368,15.2960526 592.105263,15.7894737 590.131579,17.2697368 Z"></path>
                            <path d="M40.9539474,17.2697368 C42.9276316,18.2565789 45.3947368,20.2302632 47.3684211,21.7105263 C48.3552632,22.2039474 47.8618421,23.6842105 46.875,23.6842105 L15.2960526,23.6842105 C12.8289474,23.6842105 10.3618421,22.6973684 8.38815789,21.2171053 C6.41447368,19.7368421 4.44078947,18.2565789 2.46710526,17.2697368 C1.48026316,16.7763158 1.97368421,15.2960526 2.96052632,15.2960526 L34.5394737,15.2960526 C36.5131579,15.2960526 38.9802632,15.7894737 40.9539474,17.2697368 Z"></path>
                        </g>
                    </g>
                </g>
            </g>
        </g>
    </g>
</svg>