<?xml version="1.0" encoding="utf-8"?>
<!-- Generator: Adobe Illustrator 19.2.1, SVG Export Plug-In . SVG Version: 6.00 Build 0)  -->
<svg version="1.1" id="Layer_1" xmlns="http://www.w3.org/2000/svg" xmlns:xlink="http://www.w3.org/1999/xlink" x="0px" y="0px"
	 viewBox="0 0 194 311" style="enable-background:new 0 0 194 311;" xml:space="preserve">
<style type="text/css">
	.st0{fill:none;stroke:#818181;stroke-linecap:round;stroke-linejoin:round;stroke-miterlimit:10;stroke-dasharray:3,3;}
	.st1{fill:none;stroke:#818181;stroke-linecap:round;stroke-linejoin:round;stroke-miterlimit:10;}
</style>
<path class="st0" d="M71.4,93.7c0,0-15.2,12.8-19.5,25.7c0,0-5.7,20.9-7.1,31.4c-1.4,10.5-3.7,26.6-3.7,26.6"/>
<path class="st1" d="M68,156.2l-58,130c0,0,53.7,25.7,91.3,12.8c37.6-12.8,43.3-21.9,53.7-25.7c10.5-3.8,27.1-7.1,27.1-7.1
	s-20.4-145.9-25.7-160.7c-5.2-14.7-12.4-21.9-20.4-24.2c-8.1-2.4-19-0.5-19.5-7.6c-0.5-7.1,8.1-20,6.7-30c-0.1-0.5-0.2-1-0.2-1.5
	c-1.3-7.2-5.4-13.4-11.5-17.5C104,19.8,96.1,13,89.9,10.5C81.8,7.1,68.4,13,66.6,23.8c-1.1,6.7,1.8,13.6,1.8,13.6s2.5,0.8,2.7,2
	c1.2,5.1,4,21.4-0.3,27.6c-4.3,6.2-12.8,8.1-12.8,8.1s20.4,20,22.8,31.4s-41.5,73.1-41.5,73.1l-24.6,35.7c0,0-2.4,14.3,0,27.1
	c2,10.8,4.8,19.5,4.8,19.5"/>
<path class="st0" d="M87.6,9.9c0,0-13.7,1.2-16.3,13.4c-1.8,8.6,9.5,42.3,13.3,58.5s-3.8,24.7-3.8,24.7"/>
<path class="st0" d="M98.6,15.5c0,0,9.1,13.1,10.8,30.1c2.4,22.8-13.3,22.8-13.3,22.8l-12.4,33.2"/>
<path class="st0" d="M94.4,300.9c0,0,19.3,4.3,19.3-41.8s-7.6-102.9-7.6-102.9"/>
<path class="st0" d="M66.6,217.3l12.8,6.7c0,0,15.4-25.2,17.2-40.4c1.8-15.2,5.6-27.1,9.9-33.3c4.3-6.2,9.5-7.6,9.5-7.6"/>
<path class="st0" d="M113.9,162.4c0,0,1.8,13.9,7.5,6.3c5.7-7.6,12-35.6,7.7-51.8c-4.3-16.2-4.6-17.1-4.6-23.2s0-6.7,0-6.7"/>
<path class="st1" d="M153.4,98.3c0,0-12.2-0.3-19.8,3.3c-7.6,3.7-12.8,12.5-17.6,17.7c-4.8,5.2-7.9,4.1-12,9.6
	c-4.1,5.6-7.4,13.7-7.4,13.7"/>
<line class="st0" x1="31.5" y1="290" x2="64" y2="231"/>
<ellipse transform="matrix(0.7071 -0.7071 0.7071 0.7071 -34.0541 73.0714)" class="st1" cx="71.2" cy="77.6" rx="1.8" ry="1.8"/>
</svg>
