<?xml version="1.0" encoding="utf-8"?>
<!-- Generator: Adobe Illustrator 19.2.1, SVG Export Plug-In . SVG Version: 6.00 Build 0)  -->
<svg version="1.1" id="Layer_1" xmlns="http://www.w3.org/2000/svg" xmlns:xlink="http://www.w3.org/1999/xlink" x="0px" y="0px"
	 viewBox="0 0 205.7 186" style="enable-background:new 0 0 205.7 186;" xml:space="preserve">
<style type="text/css">
	.st0{fill:none;stroke:#818181;stroke-linecap:round;stroke-linejoin:round;stroke-miterlimit:10;}
	.st1{fill:none;stroke:#818181;stroke-linecap:round;stroke-linejoin:round;stroke-miterlimit:10;stroke-dasharray:3,3;}
</style>
<path class="st0" d="M148.7,28c0,0-7.2,4.4-9.4,5.9c-7.1,4.8-13.8,10.3-13.8,10.3"/>
<path class="st0" d="M160.2,24.1c0,0,5.5-2.6,2.5-6.9c-3-4.3-4.3-10.7-21.1-10.4C124.9,7,117.7,9.6,106,14.3s-31.3,7.5-48,5.4
	S17.9,12.9,13,19.4c-2.4,3.1-0.7,6.8,1.4,8.7s11.9,10.5,18.4,21.3S46.2,69.2,52,64.7s5-19.2,12.9-21.6s24.8-4.5,35.6-7.7
	s38.5-12.5,44.8-13.5c6.4-1,10.2-2.6,13.5-2.1c2.2,0.3,2.8,2,1.3,3.4"/>
<ellipse transform="matrix(0.5244 -0.8515 0.8515 0.5244 -3.4485 66.4074)" class="st0" cx="57.7" cy="36.3" rx="3.2" ry="1.6"/>
<ellipse transform="matrix(6.024978e-02 -0.9982 0.9982 6.024978e-02 -3.5843 40.4446)" class="st0" cx="19.7" cy="22.1" rx="2.2" ry="3.3"/>
<path class="st0" d="M114.7,11c0.2,0,0.4,0,0.6,0c2,0,3.7,0.8,3.7,1.8c0,1-1.6,1.9-3.6,1.9c-2,0-3.7-0.8-3.7-1.8
	c0-0.3,0.2-0.7,0.5-0.9"/>
<path class="st0" d="M82.3,21.5c0,0-19.1,4.8-25.1,9.7s-7.2,9.6-8.4,13.5"/>
<path class="st0" d="M115.4,30.7c0,0,3,5,3.2,6.8c0.2,1.8-0.3,3.1-1.7,3.9c-1.7,1.1-9.3,4-11.6,4.9c-1.2,0.5-6.6,2.1-10.2,0.6
	c-3.5-1.5-4.9-9.1-4.9-9.1"/>
<path class="st0" d="M112.5,39.3c1.2-0.5,2-1.9,1.6-3.2c-0.1-0.4-0.3-0.7-0.5-1c-0.6-0.8-1.6-1.2-2.5-0.9l-13.8,4.4
	c-1.3,0.4-1.9,1.9-1.4,3.1c0.5,1,1.2,1.9,2.5,2.1C100.4,44.2,108.7,40.9,112.5,39.3z"/>
<path class="st1" d="M80.3,60.1L114.6,79c13.4,7.4,19.2,23.6,13.4,37.8l-19.6,47.7c0,0-32.8-28.1-36.1-31.4c0,0-0.1-0.1-0.1-0.1
	c-2.3-2.3-3.4-5.5-3.1-8.7c1.6-14.7,6.3-58.2,6.8-60.8c0.7-3.2,3.5-5.9,5.7-6.4c2.2-0.5,38.8-11.4,38.8-11.4s17.6-5.1,23.2-6.5
	c5.9-1.4,9.4-2.3,9.4-2.3l10.3-2.4c2.7-0.6,5.5-0.8,8.3-0.4c3.5,0.5,8.2,1.6,12,3.8c25.7,15.1,18,34,18,34l-12.4,33.8L131,136.4
	v-23.8"/>
<polyline class="st1" points="183.7,108.4 174.5,129.3 108.4,164.5 "/>
<path class="st0" d="M52,64.7c0,0,5.1-0.8,8.5-7.5c3.1-6.1,1.9-10,10.6-11.5s19.1-4.4,19.1-4.4"/>
<path class="st0" d="M117.1,33.6c0,0,17.5-5.6,27.6-8.5"/>
<path class="st0" d="M66.2,47.2c0,0-1.3,9.6,0,12.9c1.3,3.3,9.7,3.3,9.7,3.3"/>
<path class="st0" d="M77.5,60c0,0-4.5,2.2-6.8,0c-2.2-2.2,0.3-14.4,0.3-14.4"/>
<line class="st1" x1="139.5" y1="60.1" x2="122.4" y2="65.9"/>
<line class="st1" x1="119.9" y1="64.1" x2="137.6" y2="57.5"/>
<path class="st1" d="M136.4,61.1c0,0,10,7,15.2,14.6c6.6,9.6,4.3,21.5,4.3,21.5"/>
<path class="st1" d="M126.5,64.6c0,0,12.1,8.1,16.7,16.1c4.5,8,3.1,22.1,3.1,22.1"/>
<line class="st1" x1="158.7" y1="96.4" x2="142.4" y2="104.1"/>
<line class="st1" x1="158.7" y1="98.9" x2="142.4" y2="106.6"/>
<line class="st1" x1="177.4" y1="46.2" x2="162.9" y2="51.1"/>
<line class="st1" x1="160.7" y1="49.6" x2="175.8" y2="43.9"/>
<line class="st1" x1="151.7" y1="44.9" x2="168.8" y2="39.1"/>
<path class="st1" d="M174.8,47.1c0,0,8.5,5.3,13,11.8c5.6,8.2,2.3,22,2.3,22"/>
<path class="st1" d="M166.4,50c0,0,10.4,6.9,14.2,13.7c3.9,6.9,1,19.9,1,19.9"/>
<line class="st1" x1="192.5" y1="80.2" x2="178.3" y2="84.8"/>
<line class="st1" x1="192.5" y1="82.3" x2="178.3" y2="86.9"/>
<line class="st0" x1="54.9" y1="87.5" x2="58.6" y2="60.2"/>
<line class="st0" x1="42.3" y1="180.3" x2="52.4" y2="105.9"/>
<line class="st0" x1="72.3" y1="133.1" x2="65.7" y2="180.3"/>
<path class="st1" d="M84.8,55.3"/>
<path class="st0" d="M144,22.5l0.9,3c0.5,1.8,2.4,2.9,4.2,2.4l8.4-1.7c2-0.5,3.2-2.6,2.5-4.6l-0.6-1.6"/>
<path class="st0" d="M146.7,21.9l0.7,2.4c0.2,0.6,0.8,1,1.4,0.8l7.3-1.5c0.6-0.1,1-0.8,0.8-1.3l-0.7-2.1"/>
<path class="st1" d="M72.6,91.2c0,0-5.2-0.1-12.9-1.8c-5.3-1.2-6-4.8-6-4.8L52,102.8c0,0-2.1,4.4,5.7,5.6c7.8,1.2,12.9,1.8,12.9,1.8
	"/>
</svg>
